<svg xmlns="http://www.w3.org/2000/svg" class="si60688686c737b7002174a3c338f9436850b841fa89cca7b3c6cdc42a1617462926409 svgIcon_1J7 filled_Qbi darkTheme_3jZ" viewBox="0 0 32 32" style="border-radius:4px"><path class="outer_bDW" d="M5 0h22a5 5 0 015 5v22a5 5 0 01-5 5H5a5 5 0 01-5-5V5a5 5 0 015-5zm8.638 25h3.275v-8.996h2.457l.486-2.81h-2.943v-2.037c0-.657.425-1.346 1.032-1.346h1.672V7h-2.05v.013c-3.207.116-3.866 1.973-3.923 3.924h-.006v2.257H12v2.81h1.638V25z"/><path d="M5 1a4 4 0 00-4 4v22a4 4 0 004 4h22a4 4 0 004-4V5a4 4 0 00-4-4H5zm0-1h22a5 5 0 015 5v22a5 5 0 01-5 5H5a5 5 0 01-5-5V5a5 5 0 015-5z" class="border_2yy"/><path class="logo_2gS" d="M13.638 25h3.275v-8.996h2.457l.486-2.81h-2.943v-2.037c0-.657.425-1.346 1.032-1.346h1.672V7h-2.05v.013c-3.207.116-3.866 1.973-3.923 3.924h-.006v2.257H12v2.81h1.638V25z" color="#333" fill="#333"/></svg>