<svg xmlns="http://www.w3.org/2000/svg" class="si60688686c737b7002174a3c338f9436850b841fa89cca7b3c6cdc42a1617462926409 svgIcon_1J7 filled_Qbi darkTheme_3jZ" viewBox="0 0 32 32" style="border-radius:4px"><path class="outer_bDW" d="M5 0h22a5 5 0 015 5v22a5 5 0 01-5 5H5a5 5 0 01-5-5V5a5 5 0 015-5zm7.705 8C10.122 8 8 10.12 8 12.705v6.59C8 21.878 10.12 24 12.705 24h6.59C21.878 24 24 21.88 24 19.295v-6.59C24 10.122 21.88 8 19.295 8h-6.59zm0 1.455h6.59a3.246 3.246 0 013.25 3.25v6.59a3.246 3.246 0 01-3.25 3.25h-6.59a3.246 3.246 0 01-3.25-3.25v-6.59a3.246 3.246 0 013.25-3.25zm7.59 1.59a.656.656 0 00-.659.66c0 .366.293.659.66.659.366 0 .659-.293.659-.66a.656.656 0 00-.66-.659zM16 11.636A4.376 4.376 0 0011.636 16c0 2.4 1.963 4.364 4.364 4.364 2.4 0 4.364-1.963 4.364-4.364 0-2.4-1.963-4.364-4.364-4.364zm0 1.455A2.897 2.897 0 0118.91 16 2.897 2.897 0 0116 18.91 2.897 2.897 0 0113.09 16 2.897 2.897 0 0116 13.09z"/><path class="insta-mask-hover_2Yt" d="M5 0h22a5 5 0 015 5v22a5 5 0 01-5 5H5a5 5 0 01-5-5V5a5 5 0 015-5zm7.705 8C10.122 8 8 10.12 8 12.705v6.59C8 21.878 10.12 24 12.705 24h6.59C21.878 24 24 21.88 24 19.295v-6.59C24 10.122 21.88 8 19.295 8h-6.59zm0 1.455h6.59a3.246 3.246 0 013.25 3.25v6.59a3.246 3.246 0 01-3.25 3.25h-6.59a3.246 3.246 0 01-3.25-3.25v-6.59a3.246 3.246 0 013.25-3.25zm7.59 1.59a.656.656 0 00-.659.66c0 .366.293.659.66.659.366 0 .659-.293.659-.66a.656.656 0 00-.66-.659zM16 11.636A4.376 4.376 0 0011.636 16c0 2.4 1.963 4.364 4.364 4.364 2.4 0 4.364-1.963 4.364-4.364 0-2.4-1.963-4.364-4.364-4.364zm0 1.455A2.897 2.897 0 0118.91 16 2.897 2.897 0 0116 18.91 2.897 2.897 0 0113.09 16 2.897 2.897 0 0116 13.09z" fill="url(#si60688686c737b7002174a3c338f9436850b841fa89cca7b3c6cdc42a1617462926409instagramhover)"/><path d="M5 1a4 4 0 00-4 4v22a4 4 0 004 4h22a4 4 0 004-4V5a4 4 0 00-4-4H5zm0-1h22a5 5 0 015 5v22a5 5 0 01-5 5H5a5 5 0 01-5-5V5a5 5 0 015-5z" class="border_2yy"/><g><path class="logo_2gS" d="M12.705 8C10.122 8 8 10.12 8 12.705v6.59C8 21.878 10.12 24 12.705 24h6.59C21.878 24 24 21.88 24 19.295v-6.59C24 10.122 21.88 8 19.295 8h-6.59zm0 1.455h6.59a3.246 3.246 0 013.25 3.25v6.59a3.246 3.246 0 01-3.25 3.25h-6.59a3.246 3.246 0 01-3.25-3.25v-6.59a3.246 3.246 0 013.25-3.25zm7.59 1.59a.656.656 0 00-.659.66c0 .366.293.659.66.659.366 0 .659-.293.659-.66a.656.656 0 00-.66-.659zM16 11.636A4.376 4.376 0 0011.636 16c0 2.4 1.963 4.364 4.364 4.364 2.4 0 4.364-1.963 4.364-4.364 0-2.4-1.963-4.364-4.364-4.364zm0 1.455A2.897 2.897 0 0118.91 16 2.897 2.897 0 0116 18.91 2.897 2.897 0 0113.09 16 2.897 2.897 0 0116 13.09z" fill="#333" color="#333"/><path class="insta-mask-logo-hover_19f" d="M12.705 8C10.122 8 8 10.12 8 12.705v6.59C8 21.878 10.12 24 12.705 24h6.59C21.878 24 24 21.88 24 19.295v-6.59C24 10.122 21.88 8 19.295 8h-6.59zm0 1.455h6.59a3.246 3.246 0 013.25 3.25v6.59a3.246 3.246 0 01-3.25 3.25h-6.59a3.246 3.246 0 01-3.25-3.25v-6.59a3.246 3.246 0 013.25-3.25zm7.59 1.59a.656.656 0 00-.659.66c0 .366.293.659.66.659.366 0 .659-.293.659-.66a.656.656 0 00-.66-.659zM16 11.636A4.376 4.376 0 0011.636 16c0 2.4 1.963 4.364 4.364 4.364 2.4 0 4.364-1.963 4.364-4.364 0-2.4-1.963-4.364-4.364-4.364zm0 1.455A2.897 2.897 0 0118.91 16 2.897 2.897 0 0116 18.91 2.897 2.897 0 0113.09 16 2.897 2.897 0 0116 13.09z" fill="#333" color="#333"/></g></svg>