<svg xmlns="http://www.w3.org/2000/svg" viewBox="0 0 90 90" style="max-width:100%"><path d="M76.915 69.008h-63.83a5.268 5.268 0 01-5.262-5.262V26.254a5.268 5.268 0 015.262-5.262h63.83a5.268 5.268 0 015.262 5.262v37.492a5.268 5.268 0 01-5.262 5.262zm-63.83-45.316a2.565 2.565 0 00-2.563 2.562v37.492a2.565 2.565 0 002.563 2.562h63.83a2.565 2.565 0 002.562-2.562V26.254a2.565 2.565 0 00-2.562-2.562h-63.83z" fill="currentColor"/><path d="M26.179 50.82h-9.98a1.35 1.35 0 010-2.7h9.98a1.35 1.35 0 010 2.7zM42.053 50.82h-9.98a1.35 1.35 0 010-2.7h9.98a1.35 1.35 0 010 2.7zM57.928 50.82h-9.98a1.35 1.35 0 010-2.7h9.98a1.35 1.35 0 010 2.7zM73.802 50.82h-9.98a1.35 1.35 0 010-2.7h9.98a1.35 1.35 0 010 2.7zM42.053 59.477H16.199a1.35 1.35 0 010-2.7h25.854a1.35 1.35 0 010 2.7zM26.502 38.575h-8.108a3.309 3.309 0 01-3.305-3.306v-4.272a3.31 3.31 0 013.305-3.306h8.108a3.309 3.309 0 013.305 3.306v4.272a3.309 3.309 0 01-3.305 3.306zm-8.108-8.184a.607.607 0 00-.607.606v4.272c0 .335.272.606.607.606h8.108a.607.607 0 00.607-.606v-4.272a.606.606 0 00-.607-.606h-8.108z" fill="currentColor"/></svg>