<svg xmlns="http://www.w3.org/2000/svg" viewBox="0 0 64 64" style="max-width:100%"><g fill="currentColor"><path d="M50 19c-6.065 0-11-4.935-11-11a1 1 0 00-1-1H26a1 1 0 00-1 1c0 6.065-4.935 11-11 11a1 1 0 00-1 1v12c0 11.426 17.664 24.271 18.416 24.812.174.126.379.188.584.188s.41-.062.584-.188C33.336 56.271 51 43.426 51 32V20a1 1 0 00-1-1zm-1 13c0 9.313-13.948 20.432-17 22.752C28.947 52.432 15 41.319 15 32V20.962C21.373 20.475 26.475 15.373 26.962 9h10.076c.487 6.373 5.589 11.475 11.962 11.962V32z"/><path d="M32 25h4a1 1 0 100-2h-3v-3a1 1 0 00-2 0v3.101A5.009 5.009 0 0027 28c0 1.335.52 2.591 1.464 3.536S30.664 33 31.999 33H32c1.654 0 3 1.346 3 3s-1.346 3-3 3h-4a1 1 0 100 2h3v3a1 1 0 102 0v-3.102A5.007 5.007 0 0037 36c0-2.757-2.243-5-5-5h-.001a2.979 2.979 0 01-2.12-.878A2.984 2.984 0 0129 28c0-1.655 1.346-3 3-3z"/></g></svg>