<svg xmlns="http://www.w3.org/2000/svg" viewBox="0 0 100 100" style="max-width:100%"><g fill="currentColor"><path d="M83.3 59.3c.7-.1 1.2-.6 1.3-1.2l5.2-26.9c.1-.4 0-.9-.3-1.2-.3-.3-.7-.5-1.2-.5H39.2l-1.9-6.3c-.2-.6-.8-1.1-1.4-1.1H25.8c-.8 0-1.5.7-1.5 1.5s.7 1.5 1.5 1.5h9l1.9 6.2v.1l8.8 28.3.5 1.6-4.2 7.5c-.3.5-.3 1 0 1.5s.8.7 1.3.7h2.2c-.6 1-1 2.1-1 3.4 0 3.5 2.9 6.4 6.4 6.4 3.5 0 6.4-2.9 6.4-6.4 0-1.2-.4-2.4-1-3.4h19.3c-.6 1-1 2.1-1 3.4 0 3.5 2.9 6.4 6.4 6.4 3.5 0 6.4-2.9 6.4-6.4S84.3 68 80.8 68H45.6l2.8-5.1 34.9-3.6zm-29.2 15c0 1.9-1.5 3.4-3.4 3.4s-3.4-1.5-3.4-3.4 1.5-3.4 3.4-3.4 3.4 1.5 3.4 3.4zm30.1 0c0 1.9-1.5 3.4-3.4 3.4s-3.4-1.5-3.4-3.4 1.5-3.4 3.4-3.4 3.4 1.5 3.4 3.4zm2.3-41.9l-4.6 24-33.2 3.3v-.1l-8.4-27.3h46.2z"/><path d="M11.7 32.4h17.7c.8 0 1.5-.7 1.5-1.5s-.7-1.5-1.5-1.5H11.7c-.8 0-1.5.7-1.5 1.5s.6 1.5 1.5 1.5zM19 41.4c0 .8.7 1.5 1.5 1.5h10.2c.8 0 1.5-.7 1.5-1.5s-.7-1.5-1.5-1.5H20.5c-.8 0-1.5.7-1.5 1.5zM32.9 49.5H11.7c-.8 0-1.5.7-1.5 1.5s.7 1.5 1.5 1.5h21.2c.8 0 1.5-.7 1.5-1.5 0-.9-.7-1.5-1.5-1.5zM32.9 57.4H22.3c-.8 0-1.5.7-1.5 1.5s.7 1.5 1.5 1.5h10.6c.8 0 1.5-.7 1.5-1.5 0-.9-.7-1.5-1.5-1.5z"/></g></svg>