<svg xmlns="http://www.w3.org/2000/svg" viewBox="0 0 90 90" style="max-width:100%"><switch fill="currentColor"><g><g><path d="M54.9 32c.6-1 1-2.2 1-3.4 0-2.9-1.8-5.3-4.4-6.2l3.6-9.2c.2-.5.1-1-.2-1.4-.3-.4-.7-.7-1.2-.7h-18c-.5 0-1 .2-1.2.7-.3.4-.3.9-.2 1.4l3.6 9.2c-2.6.9-4.4 3.3-4.4 6.2 0 1.3.4 2.4 1 3.5-8.8 6-14.7 17.4-14.7 28.6 0 4.9 0 19.7 24.9 19.7 6.2 0 24.9 0 24.9-19.7 0-11.2-5.9-22.7-14.7-28.7zm-3.5-17.9l-3 7.9H41l-3.1-7.9h13.5zM40 25h9.3c2 0 3.5 1.6 3.5 3.5S51.2 32 49.3 32H40c-2 0-3.5-1.6-3.5-3.5S38 25 40 25zm4.6 52.3c-15.2 0-21.9-5.2-21.9-16.7 0-10.4 5.6-21 13.8-26.4 1 .6 2.2 1 3.4 1h9.3c1.3 0 2.4-.4 3.4-1 .1.1.2.2.3.2 8.1 5.5 13.6 16 13.6 26.3.1 11.5-6.7 16.6-21.9 16.6z"/><path d="M48.8 56.3c-1-.5-2.3-.8-3.6-1.1h-.1c-1.4-.3-2.6-.7-3.3-1.2-.3-.2-.6-.5-.7-.7-.1-.2-.1-.4-.1-.7 0-.6.3-1.1 1-1.7.7-.5 1.8-.9 2.9-.9 1.6 0 2.9.8 4.2 1.7.6.4 1.5.2 1.9-.4.4-.6.2-1.4-.4-1.9-1.1-.7-2.6-1.7-4.5-2v-3.9c0-.8-.7-1.5-1.5-1.5s-1.5.7-1.5 1.5v4c-1 .2-2 .6-2.8 1.2-1.2.9-2.1 2.3-2.1 3.8 0 .8.2 1.5.6 2.2.6.9 1.4 1.6 2.4 2 1 .5 2.2.8 3.4 1h.1c1.5.3 2.8.7 3.6 1.2.4.3.6.5.8.8.2.3.2.5.2.8 0 .7-.3 1.3-1.1 1.9-.8.6-2 1-3.3 1-1.9 0-3.9-1.1-5-2-.6-.5-1.4-.4-1.9.2-.4.6-.4 1.4.2 1.9 1.2.9 2.9 2 4.9 2.4v3.7c0 .8.7 1.5 1.5 1.5s1.5-.7 1.5-1.5V66c1.4-.2 2.7-.7 3.7-1.4 1.3-.9 2.3-2.4 2.3-4.1 0-.8-.2-1.6-.6-2.2-.6-.8-1.6-1.5-2.7-2z"/></g></g></switch></svg>