<svg xmlns="http://www.w3.org/2000/svg" class="si60688686c737b7002174a3c338f9436850b841fa89cca7b3c6cdc42a1617462926409 svgIcon_1J7 filled_Qbi darkTheme_3jZ" viewBox="0 0 32 32" style="border-radius:4px"><path class="outer_bDW" d="M5 0h22a5 5 0 015 5v22a5 5 0 01-5 5H5a5 5 0 01-5-5V5a5 5 0 015-5zm19.832 11.487c-.152-1.327-.468-1.713-.692-1.893-.356-.28-1.002-.38-1.865-.44C20.89 9.06 18.538 9 16 9c-2.544 0-4.89.053-6.275.153-.863.06-1.509.16-1.865.44-.224.18-.534.567-.692 1.894-.224 1.914-.224 6.276 0 8.19.158 1.327.468 1.714.692 1.894.356.28 1.002.38 1.865.44 1.384.093 3.73.153 6.275.153 2.544 0 4.89-.06 6.275-.153.863-.06 1.509-.16 1.865-.44.224-.174.534-.567.692-1.894.224-1.914.224-6.276 0-8.19zm-11.007 6.956v-5.728l5.431 2.86-5.431 2.868z"/><path d="M5 1a4 4 0 00-4 4v22a4 4 0 004 4h22a4 4 0 004-4V5a4 4 0 00-4-4H5zm0-1h22a5 5 0 015 5v22a5 5 0 01-5 5H5a5 5 0 01-5-5V5a5 5 0 015-5z" class="border_2yy"/><path class="logo_2gS" d="M24.832 11.487c-.152-1.327-.468-1.713-.692-1.893-.356-.28-1.002-.38-1.865-.44C20.89 9.06 18.538 9 16 9c-2.544 0-4.89.053-6.275.153-.863.06-1.509.16-1.865.44-.224.18-.534.567-.692 1.894-.224 1.914-.224 6.276 0 8.19.158 1.327.468 1.714.692 1.894.356.28 1.002.38 1.865.44 1.384.093 3.73.153 6.275.153 2.544 0 4.89-.06 6.275-.153.863-.06 1.509-.16 1.865-.44.224-.174.534-.567.692-1.894.224-1.914.224-6.276 0-8.19zm-11.007 6.956v-5.728l5.431 2.86-5.431 2.868z" color="#333" fill="#333"/></svg>